# xmcd CD database file
#
# Track frame offsets:
#	182
#	18962
#	36340
#	52817
#	72612
#	93210
#	114147
#	132100
#	146912
#	167017
#	187492
#	206732
#
# Disc length: 3015 seconds
#
# Revision: 0
# Processed by: cddbd v1.5.2PL0 Copyright (c) Steve Scherf et al.
# Submitted via: CDex 1.51
#
DISCID=ad0bc50c
DTITLE=The New York Band - Sudando Amor
DYEAR=1900
DGENRE=Merengue
TTITLE0=Sundando Amor
TTITLE1=Longtime - Baila Tus Problemas
TTITLE2=Ay Mamà - Que siga LaVida
TTITLE3=En tus Brazos de Agua Lluvia
TTITLE4=Hola
TTITLE5=No me Olvides Cielo
TTITLE6=Ohe! Ohe!
TTITLE7=Tocame La Puerta
TTITLE8=El Cibaeño
TTITLE9=El Cartero Medley
TTITLE10=Amor Vital
TTITLE11=Dari Dari
EXTD=
EXTT0=
EXTT1=
EXTT2=
EXTT3=
EXTT4=
EXTT5=
EXTT6=
EXTT7=
EXTT8=
EXTT9=
EXTT10=
EXTT11=
PLAYORDER=
